<?xml version="1.0" encoding="UTF-8"?>
<svg width="607px" height="83px" viewBox="0 0 607 83" version="1.1" xmlns="http://www.w3.org/2000/svg" xmlns:xlink="http://www.w3.org/1999/xlink">
    <!-- Generator: Sketch 42 (36781) - http://www.bohemiancoding.com/sketch -->
    <title>Group</title>
    <desc>Created with Sketch.</desc>
    <defs>
        <path d="M3.669257,38.39616 C3.669257,45.29789 3.691098,51.17301 3.73478,56.0217 C3.778462,60.87038 3.843983,64.88905 3.931347,68.07783 C4.018711,71.2666 4.171595,73.756432 4.390004,75.547388 C4.608414,77.338344 4.892341,78.67062 5.241796,79.544257 C5.591251,80.417894 6.006222,80.963909 6.486723,81.182319 C6.967223,81.400728 7.513238,81.509931 8.124784,81.509931 C9.609967,81.509931 10.68016,80.658148 11.33538,78.954555 C11.99061,77.250963 12.31822,73.778308 12.31822,68.53649 C12.31822,52.81102 12.42742,40.4274 12.64583,31.38525 C12.86424,22.34311 13.14817,15.90013 13.49763,12.05613 C13.58499,10.57095 13.82524,9.28235 14.21837,8.19031 C14.61151,7.09826 14.80807,6.02807 14.80807,4.97971 C14.80807,4.45552 14.19654,3.82215 12.97345,3.07956 C11.75035,2.33696 10.65832,1.96567 9.697323,1.96567 C9.085777,1.96567 8.233994,2.29328 7.141947,2.94851 C6.049901,3.60374 4.979712,4.36816 3.931347,5.2418 C2.882983,6.11543 1.965678,7.03274 1.179404,7.99374 C0.3931308,8.95474 0,9.69732 0,10.2215 C0,10.92041 0.1528842,11.64115 0.4586572,12.38374 C0.7644301,13.12634 1.354126,13.97812 2.227763,14.93912 C2.751946,15.55067 3.057714,16.2714 3.145078,17.10136 C3.232441,17.93132 3.276123,18.95782 3.276123,20.18092 C3.276123,22.45237 3.341644,24.89852 3.47269,27.51943 C3.603736,30.14034 3.669257,33.76588 3.669257,38.39616 Z M49.79706,30.66451 L48.22453,63.0326 C48.0498,65.65351 47.70035,67.79389 47.17617,69.4538 C46.65198,71.11371 46.10597,72.44599 45.5381,73.450669 C44.97024,74.455352 44.46791,75.285295 44.03109,75.940522 C43.59427,76.59575 43.37586,77.272809 43.37586,77.971718 C43.37586,79.19481 44.20581,79.806347 45.86572,79.806347 C46.82672,79.806347 47.85323,79.675304 48.94527,79.413212 C50.03732,79.151121 51.63168,78.757991 53.72841,78.233808 C54.68941,77.971717 55.32279,77.469383 55.62856,76.726792 C55.93434,75.9842 56.08722,75.263461 56.08722,74.564551 C56.08722,73.516186 56.04354,72.00919 55.95617,70.0435 C55.86881,68.07782 55.82513,66.13401 55.82513,64.212 C55.82513,62.02791 55.84697,59.34152 55.89065,56.15274 C55.93433,52.96397 55.97802,49.53499 56.0217,45.86572 C56.06538,42.19644 56.17458,38.41802 56.34931,34.53033 C56.52404,30.64265 56.74244,26.86422 57.00453,23.19495 C58.31499,24.68013 60.2588,26.73315 62.83603,29.35406 C65.41326,31.97497 68.29622,34.96713 71.485,38.33063 C74.67377,41.69414 78.0809,45.31968 81.7065,49.20736 C85.33209,53.09505 88.84843,57.0482 92.25561,61.06693 C93.82816,62.90156 95.02939,64.73617 95.85935,66.57081 C96.6893,68.40545 97.32268,70.06534 97.7595,71.55052 C98.19632,73.035701 98.56761,74.258775 98.87338,75.219775 C99.17915,76.180776 99.55044,76.661269 99.98726,76.661269 C100.3367,76.661269 100.9919,76.377342 101.9529,75.809478 C102.9139,75.241613 103.8968,74.542714 104.9014,73.712759 C105.9061,72.8828 106.8016,71.9655 107.5879,70.96082 C108.3741,69.95613 108.7673,69.01699 108.7673,68.14335 C108.7673,65.34771 108.7236,62.705 108.6362,60.21513 C108.5489,57.72527 108.5052,55.38832 108.5052,53.20423 C108.5052,46.04041 108.7236,39.9032 109.1604,34.79242 C109.5972,29.68165 110.0777,25.42273 110.6019,22.01554 C111.1261,18.60836 111.6066,15.90013 112.0434,13.89076 C112.4802,11.88139 112.6986,10.43992 112.6986,9.56628 C112.6986,8.60528 112.4802,7.75349 112.0434,7.0109 C111.6066,6.26831 110.7766,5.89702 109.5535,5.89702 C108.6799,5.89702 107.7189,5.9407 106.6706,6.02807 C105.6222,6.11543 104.6175,6.29015 103.6565,6.55225 C102.6955,6.81434 101.8874,7.18563 101.2322,7.66613 C100.577,8.14663 100.2057,8.78 100.1183,9.56628 C100.1183,10.17782 100.2494,11.00777 100.5114,12.05613 C100.7735,13.1045 101.0356,14.50229 101.2977,16.24957 C101.5598,17.99684 101.8219,20.13722 102.084,22.67077 C102.3461,25.20432 102.4771,28.17464 102.4771,31.58182 C102.4771,35.86264 102.3242,40.0342 102.0185,44.09661 C101.7127,48.15902 101.2104,52.41794 100.5114,56.87349 C99.28835,55.82512 96.99509,53.5537 93.63158,50.05915 C90.26808,46.56461 86.29309,42.32753 81.7065,37.3478 C77.1199,32.36807 72.16209,26.86424 66.8329,20.83614 C61.50372,14.80804 56.30565,8.78004 51.23856,2.75194 C50.53965,1.87831 49.94995,1.28861 49.46945,0.98284 C48.98895,0.67706 48.48662,0.52418 47.96244,0.52418 C47.52562,0.52418 47.06696,0.61154 46.58646,0.78627 C46.10596,0.961 45.51627,1.35413 44.81736,1.96567 L40.09974,5.76598 C39.13874,6.46489 38.65825,7.1201 38.65825,7.73165 C38.65825,8.86738 39.24794,9.65364 40.42735,10.09046 C41.60676,10.52728 42.9172,11.02961 44.3587,11.59747 C45.8002,12.16534 47.11064,13.10448 48.29005,14.41494 C49.46946,15.7254 50.05915,17.86577 50.05915,20.83614 C50.05915,22.49605 50.03731,24.1341 49.99363,25.75032 C49.94995,27.36655 49.88443,29.0046 49.79706,30.66451 Z M140.4801,47.43826 C140.4801,53.46635 141.463,58.51153 143.4286,62.57394 C145.3943,66.63635 147.8186,69.91244 150.7016,72.40231 C153.5846,74.892176 156.6423,76.661264 159.8748,77.709629 C163.1072,78.757993 165.9465,79.282168 168.3927,79.282168 C170.14,79.282168 171.9746,79.172965 173.8966,78.954555 C175.8186,78.736146 177.6532,78.452218 179.4005,78.102763 C181.1477,77.753309 182.764,77.338337 184.2491,76.857837 C185.7343,76.377336 186.9137,75.875003 187.7873,75.35082 C189.2725,74.564547 190.6485,73.625401 191.9153,72.53335 C193.182,71.44131 194.3177,70.37112 195.3224,69.32275 C196.3271,68.27439 197.1134,67.33524 197.6812,66.50529 C198.2491,65.67533 198.533,65.08564 198.533,64.73618 C198.533,63.94991 198.2928,63.29469 197.8123,62.77051 C197.3318,62.24633 196.6547,61.98424 195.7811,61.98424 C194.9948,61.98424 193.9028,62.53026 192.505,63.6223 C191.1071,64.71435 189.4254,65.93742 187.4597,67.29156 C185.4941,68.6457 183.2226,69.86877 180.6454,70.96082 C178.0682,72.05286 175.2071,72.59888 172.062,72.59888 C168.6548,72.59888 165.5316,71.65973 162.6922,69.78141 C159.8529,67.90309 157.4286,65.56615 155.4193,62.77051 C153.4099,59.97487 151.8592,56.98271 150.7672,53.79393 C149.6751,50.60516 149.1291,47.74404 149.1291,45.21049 C149.1291,43.90004 149.282,42.08727 149.5878,39.77213 C149.8935,37.45699 150.4395,34.94532 151.2258,32.23705 C152.0121,29.52877 153.1041,26.77686 154.5019,23.98122 C155.8998,21.18558 157.7125,18.67391 159.9403,16.44614 C162.1681,14.21836 164.8326,12.38375 167.934,10.94225 C171.0355,9.50075 174.6828,8.78001 178.8763,8.78001 C180.2741,8.78001 181.4535,9.08578 182.4145,9.69732 C183.3755,10.30887 184.1836,10.98593 184.8388,11.72852 C185.4941,12.47111 186.0619,13.14817 186.5424,13.75972 C187.0229,14.37126 187.5253,14.67703 188.0494,14.67703 C188.5736,14.67703 189.2507,14.43678 190.0806,13.95628 C190.9106,13.47578 191.6969,12.88609 192.4394,12.18718 C193.182,11.48827 193.8154,10.76753 194.3396,10.02494 C194.8638,9.28234 195.1259,8.64897 195.1259,8.12478 C195.1259,6.81433 194.1212,5.46021 192.1118,4.06239 C190.1025,2.66457 187.2632,1.96567 183.5939,1.96567 C181.1477,1.96567 178.374,2.20592 175.2726,2.68642 C172.1711,3.16692 169.0043,4.04054 165.7718,5.30732 C162.5393,6.57409 159.4161,8.27766 156.4021,10.41807 C153.388,12.55848 150.7017,15.3104 148.3428,18.6739 C145.984,22.0374 144.0839,26.07791 142.6424,30.79555 C141.2009,35.51319 140.4801,41.06071 140.4801,47.43826 Z M252.2614,36.95466 L234.5704,36.95466 C233.2599,36.95466 232.1242,37.15123 231.1632,37.54437 C230.2022,37.9375 229.3723,38.43984 228.6734,39.05138 C229.0228,32.4991 229.7654,27.12632 230.9011,22.93286 C232.0369,18.7394 233.4128,15.44147 235.029,13.03897 C236.6453,10.63647 238.4362,8.99842 240.4019,8.12478 C242.3676,7.25115 244.3987,6.81434 246.4955,6.81434 L254.2271,6.81434 C255.887,6.81434 256.717,5.85335 256.717,3.93135 C256.717,2.44616 256.0618,1.41966 254.7513,0.85179 C253.4408,0.28393 250.951,0 247.2817,0 C243.6125,0 240.0524,0.76442 236.6016,2.29329 C233.1507,3.82215 230.1149,6.39934 227.494,10.02494 C224.873,13.65053 222.7545,18.41178 221.1383,24.30883 C219.522,30.20588 218.7139,37.52248 218.7139,46.25885 C218.7139,48.70504 218.8013,51.28223 218.976,53.9905 C219.1508,56.69878 219.5876,59.38517 220.2865,62.04976 C220.9854,64.71436 222.0119,67.24787 223.366,69.65037 C224.7202,72.05287 226.5766,74.171407 228.9354,76.006045 C231.2943,77.840683 234.2209,79.304003 237.7155,80.396049 C241.21,81.488096 245.4471,82.0341105 250.4268,82.0341105 C253.7466,82.0341105 256.0617,81.684661 257.3722,80.985751 C258.6826,80.286842 259.3379,79.587942 259.3379,78.889033 C259.3379,77.753305 259.0103,77.010724 258.355,76.661269 C257.6998,76.311815 256.4112,76.13709 254.4892,76.13709 C245.4907,76.13709 238.9386,73.494377 234.8325,68.20887 C230.7264,62.92337 228.6734,55.03891 228.6734,44.55527 C231.2943,44.4679 234.2864,44.40238 237.6499,44.3587 C241.0134,44.31502 244.6608,44.11845 248.5922,43.769 C249.029,43.769 249.575,43.55059 250.2302,43.11377 C250.8855,42.67696 251.5625,42.15278 252.2614,41.54123 C252.9604,40.92969 253.55,40.33999 254.0305,39.77213 C254.511,39.20426 254.7513,38.78929 254.7513,38.5272 C254.7513,37.47884 253.9214,36.95466 252.2614,36.95466 Z M285.5468,50.32124 L285.5468,69.84693 C285.5468,71.94366 285.4813,73.625389 285.3503,74.892163 C285.2192,76.158937 285.0445,77.163605 284.8261,77.906196 C284.6077,78.648788 284.433,79.238484 284.3019,79.675302 C284.1709,80.112121 284.1054,80.505252 284.1054,80.854706 C284.1054,82.165162 284.8479,82.82038 286.3331,82.82038 C289.0414,82.82038 290.9415,81.684669 292.0336,79.413212 C293.1256,77.141756 293.6716,73.603579 293.6716,68.79858 L293.6716,34.20272 C293.6716,32.45545 293.7153,30.48979 293.8027,28.3057 C293.89,26.12161 293.9992,23.91571 294.1303,21.68793 C294.2613,19.46016 294.4142,17.31978 294.5889,15.26673 C294.7637,13.21368 294.9384,11.4446 295.1131,9.95941 C296.8604,8.91105 298.5421,8.12479 300.1584,7.6006 C301.7746,7.07642 303.5437,6.81434 305.4657,6.81434 C307.475,6.81434 309.1568,7.42587 310.5109,8.64896 C311.865,9.87206 312.9352,11.35722 313.7215,13.10449 C314.5078,14.85176 315.0538,16.66453 315.3596,18.54285 C315.6653,20.42117 315.8182,22.01554 315.8182,23.32599 C315.8182,26.73318 314.5951,29.83454 312.149,32.63018 C309.7028,35.42582 306.383,37.26043 302.1896,38.13407 C300.9665,38.39616 300.1365,38.68009 299.6997,38.98586 C299.2629,39.29163 299.0445,39.66292 299.0445,40.09974 C299.0445,40.36183 299.3721,40.75496 300.0273,41.27915 C300.6825,41.80333 301.4688,42.28382 302.3861,42.72064 C303.3034,43.15746 304.2644,43.55059 305.2691,43.90004 C306.2738,44.2495 307.1256,44.42422 307.8245,44.42422 C308.5234,44.42422 309.5499,43.94373 310.904,42.98273 C312.2582,42.02173 313.6997,40.8205 315.2285,39.37899 C316.7574,37.93749 318.2207,36.40865 319.6185,34.79242 C321.0163,33.17619 322.1521,31.66919 323.0257,30.27137 C324.5109,27.99992 325.2535,23.80652 325.2535,17.69106 C325.2535,16.46797 324.9695,15.13569 324.4017,13.69419 C323.8338,12.25269 323.0912,10.85489 322.1739,9.50076 C321.2566,8.14662 320.2301,6.9017 319.0943,5.76598 C317.9586,4.63025 316.8229,3.8003 315.6872,3.27612 C313.1536,2.22776 310.4017,1.41966 307.4313,0.85179 C304.461,0.28393 301.8401,0 299.5687,0 C298.4329,0 296.7949,0.26209 294.6545,0.78627 C292.5141,1.31045 290.4392,2.00935 288.4298,2.88299 C286.4205,3.75662 284.6514,4.73945 283.1225,5.8315 C281.5937,6.92354 280.8292,8.0811 280.8292,9.30419 C280.8292,10.17783 281.4844,10.96409 282.7949,11.663 C283.3191,11.92509 283.6685,12.27454 283.8433,12.71136 C284.018,13.14817 284.149,13.62867 284.2364,14.15285 C284.6732,17.12322 285.0008,21.77526 285.2192,28.10913 C285.4376,34.443 285.5468,41.84696 285.5468,50.32124 Z M345.9585,13.23554 L360.8977,13.23554 C361.3345,17.1669 361.5966,21.01085 361.6839,24.76749 C361.7713,28.52413 361.815,32.36807 361.815,36.29944 C361.815,40.92972 361.7058,44.9047 361.4874,48.22453 C361.269,51.54435 361.0506,54.33994 360.8321,56.6114 C360.6137,58.88286 360.3953,60.71747 360.1769,62.11528 C359.9585,63.5131 359.8493,64.64882 359.8493,65.52245 C359.8493,67.095 360.2424,68.77673 361.0287,70.56768 C361.815,72.35864 362.9507,74.018523 364.4359,75.547388 C365.9211,77.076253 367.6902,78.321167 369.7432,79.282168 C371.7962,80.243168 374.1332,80.723661 376.7541,80.723661 C378.0646,80.723661 379.5716,80.417893 381.2752,79.806347 C382.9787,79.194801 384.311,78.539583 385.272,77.840674 C386.0583,77.141764 386.4514,76.137096 386.4514,74.826641 C386.4514,74.302459 386.3859,73.712762 386.2549,73.057535 C386.1238,72.40231 385.7525,72.0747 385.141,72.0747 C384.7042,72.0747 384.0271,72.14022 383.1098,72.27127 C382.1925,72.40231 381.428,72.46783 380.8165,72.46783 C378.545,72.46783 376.6667,72.11838 375.1816,71.41947 C373.6964,70.72056 372.5388,69.8251 371.7089,68.73305 C370.8789,67.64101 370.2892,66.41793 369.9398,65.0638 C369.5903,63.70966 369.4156,62.3337 369.4156,60.93588 C369.4156,54.73306 369.4811,49.20739 369.6122,44.3587 C369.7432,39.51001 369.9179,35.16374 370.1363,31.31973 C370.3547,27.47573 370.6168,24.04676 370.9226,21.03271 C371.2284,18.01866 371.5997,15.2449 372.0365,12.71136 L376.2299,12.71136 C377.8898,12.71136 379.5934,12.66767 381.3407,12.58031 C383.0879,12.49295 384.8134,12.40558 386.5169,12.31822 C388.2205,12.23086 389.7275,12.09981 391.038,11.92509 C391.6495,11.83772 392.3048,11.57564 393.0037,11.13882 C393.7026,10.702 394.336,10.17782 394.9038,9.56628 C395.4717,8.95473 395.9522,8.36504 396.3453,7.79717 C396.7385,7.22931 396.935,6.77066 396.935,6.4212 C396.935,5.19811 396.2798,4.58657 394.9693,4.58657 C390.1643,4.58657 385.3594,4.7613 380.5544,5.11075 C375.7494,5.46021 370.9445,5.63493 366.1395,5.63493 C362.4702,5.63493 359.3251,5.56941 356.7042,5.43836 C354.0833,5.30732 351.8337,5.17627 349.9554,5.04523 C348.0771,4.91418 346.4827,4.80498 345.1723,4.71762 C343.8618,4.63025 342.7261,4.58657 341.7651,4.58657 C340.9788,4.58657 340.1271,5.06706 339.2097,6.02807 C338.2924,6.98907 337.8338,7.81901 337.8338,8.51792 C337.8338,9.65365 338.0959,10.76752 338.62,11.85956 C339.1442,12.95161 339.9305,13.49763 340.9788,13.49763 C341.8525,13.49763 342.7043,13.45394 343.5342,13.36658 C344.3642,13.27922 345.1723,13.23554 345.9585,13.23554 Z M417.5091,6.15911 C417.5091,12.79875 417.6183,19.28541 417.8367,25.61928 C418.0551,31.95315 418.4045,37.78459 418.885,43.11377 C419.3655,48.44296 419.9771,53.09501 420.7197,57.07006 C421.4623,61.0451 422.3577,64.03727 423.4061,66.04663 C424.3671,67.88127 425.8086,69.54116 427.7306,71.02634 C429.6526,72.51152 431.7274,73.756436 433.9552,74.761118 C436.183,75.765801 438.4326,76.530222 440.704,77.054404 C442.9755,77.578586 444.9848,77.840674 446.7321,77.840674 C447.6057,77.840674 448.4793,77.796992 449.353,77.709629 C450.2266,77.622265 451.1439,77.403859 452.1049,77.054404 C455.8616,75.569221 459.64,73.319639 463.4403,70.30559 C467.2406,67.29154 470.1891,63.20735 472.2858,58.05289 C472.81,56.65507 473.3779,54.6239 473.9894,51.9593 C474.601,49.29471 475.1907,46.32439 475.7585,43.04825 C476.3264,39.77211 476.8724,36.34314 477.3966,32.76123 C477.9208,29.17931 478.3794,25.79402 478.7726,22.60525 C479.1657,19.41647 479.4933,16.57719 479.7554,14.08733 C480.0175,11.59746 480.1485,9.82837 480.1485,8.78001 C480.1485,7.29483 479.4715,6.18096 478.1173,5.43836 C476.7632,4.69577 475.2562,4.32448 473.5963,4.32448 C472.1985,4.32448 471.0191,4.54289 470.0581,4.97971 C469.0971,5.41652 468.6166,6.20279 468.6166,7.33851 C468.6166,7.77533 468.7039,8.34319 468.8787,9.0421 C469.0534,9.74101 469.2281,10.74568 469.4028,12.05613 C469.5776,13.36659 469.7523,15.07015 469.927,17.16688 C470.1018,19.26361 470.1891,21.88448 470.1891,25.02958 C470.1891,27.3884 470.1236,30.14031 469.9926,33.28541 C469.8615,36.4305 469.5776,39.68475 469.1408,43.04825 C468.7039,46.41175 468.0269,49.70968 467.1096,52.94214 C466.1922,56.1746 464.9473,59.0794 463.3748,61.65663 C461.8022,64.23386 459.8366,66.30871 457.4778,67.88126 C455.1189,69.45381 452.2797,70.24007 448.9598,70.24007 C447.3873,70.24007 445.64,69.9343 443.718,69.32275 C441.796,68.71121 439.9396,67.88127 438.1486,66.8329 C436.3577,65.78454 434.7196,64.5833 433.2345,63.22917 C431.7493,61.87503 430.7009,60.45539 430.0894,58.97021 C428.6042,55.73775 427.7087,52.04669 427.403,47.89691 C427.0972,43.74714 426.9443,38.87668 426.9443,33.28541 C426.9443,27.95622 427.1845,23.76282 427.665,20.70509 C428.1455,17.64737 428.6479,15.28858 429.1721,13.62867 C429.6962,11.96876 430.1986,10.76753 430.6791,10.02494 C431.1596,9.28234 431.3998,8.5616 431.3998,7.86269 C431.3998,7.16378 430.9412,6.39936 430.0239,5.56941 C429.1065,4.73945 428.0582,3.95319 426.8788,3.2106 C425.6994,2.46801 424.52,1.83463 423.3406,1.31045 C422.1612,0.78627 421.2657,0.52418 420.6541,0.52418 C419.3437,0.52418 418.4919,0.96099 418.0988,1.83463 C417.7056,2.70827 417.5091,4.14975 417.5091,6.15911 Z M563.7552,36.69257 L556.2856,48.61766 L552.7474,43.50691 C551.1749,41.23545 549.4276,38.6801 547.5056,35.84078 C545.5836,33.00146 543.5961,29.98746 541.5431,26.79868 C539.49,23.60991 537.5899,20.55222 535.8426,17.62554 C534.0953,14.69886 532.6102,12.05614 531.3871,9.69732 C530.164,7.3385 529.4214,5.50389 529.1593,4.19344 C528.9846,3.23244 528.657,2.59906 528.1765,2.29329 C527.696,1.98751 526.7132,1.83463 525.228,1.83463 C523.306,1.83463 521.6898,1.98751 520.3793,2.29329 C519.0689,2.59906 518.4136,3.23244 518.4136,4.19344 C518.4136,5.2418 518.6321,6.0499 519.0689,6.61777 C519.5057,7.18563 519.7241,8.21214 519.7241,9.69732 C519.7241,11.00778 519.4838,13.17 519.0033,16.18405 C518.5228,19.19809 517.9113,22.62707 517.1687,26.47107 C516.4261,30.31507 515.5962,34.37743 514.6789,38.65825 C513.7615,42.93907 512.8661,47.02326 511.9924,50.91095 C511.1188,54.79863 510.2889,58.24945 509.5026,61.26349 C508.7163,64.27754 508.1048,66.48344 507.668,67.88126 C506.8817,70.24008 506.2702,72.05285 505.8333,73.319624 C505.3965,74.586398 505.1781,75.569225 505.1781,76.268135 C505.1781,77.753318 506.0299,78.714304 507.7335,79.151123 C509.4371,79.587941 511.3372,79.806347 513.4339,79.806347 C514.3076,79.806347 514.941,79.653463 515.3341,79.34769 C515.7272,79.041917 515.9238,78.714308 515.9238,78.364853 C515.9238,77.665944 515.8364,76.967044 515.6617,76.268135 C515.487,75.569225 515.3996,74.870326 515.3996,74.171416 C515.3996,73.647234 515.618,72.03103 516.0548,69.32275 C516.4917,66.61448 517.0595,63.36023 517.7584,59.55991 C518.4573,55.75959 519.2218,51.65356 520.0517,47.24169 C520.8817,42.82982 521.6898,38.63643 522.476,34.66138 C523.2623,30.68633 523.9612,27.16999 524.5728,24.11226 C525.1843,21.05453 525.6211,19.00152 525.8832,17.95315 C526.7568,19.26361 527.9581,21.07638 529.4869,23.39152 C531.0158,25.70665 532.6975,28.21832 534.5322,30.9266 C536.3668,33.63487 538.2451,36.43047 540.1671,39.31347 C542.0891,42.19647 543.8582,44.90471 545.4744,47.43826 C547.0906,49.9718 548.4666,52.22138 549.6023,54.18707 C550.7381,56.15275 551.4806,57.52871 551.8301,58.31498 C552.529,60.06226 553.1405,61.19797 553.6647,61.72215 C554.1889,62.24633 555.0625,62.50842 556.2856,62.50842 C557.5087,62.50842 558.426,62.26817 559.0376,61.78767 C559.6491,61.30717 559.9986,60.32435 560.0859,58.83916 C560.1733,57.70343 560.5009,56.34932 561.0688,54.77677 C561.6366,53.20422 562.8379,50.8236 564.6725,47.63482 C566.5071,44.44605 569.128,40.14345 572.5352,34.7269 C575.9424,29.31035 580.5289,22.19031 586.2949,13.36658 C586.9065,17.73477 587.6927,22.38681 588.6537,27.32286 C589.6147,32.25891 590.5975,37.41329 591.6022,42.78616 C592.6069,48.15903 593.5897,53.70654 594.5507,59.42886 C595.5117,65.15119 596.3417,70.98263 597.0406,76.923359 C597.2153,78.146451 597.4556,78.932713 597.7613,79.282168 C598.0671,79.631622 598.6131,79.806347 599.3994,79.806347 C599.6615,79.806347 600.1857,79.697144 600.9719,79.478735 C601.7582,79.260326 602.61,78.998238 603.5273,78.692465 C604.4446,78.386692 605.2527,78.015402 605.9516,77.578584 C606.6506,77.141765 607,76.661272 607,76.13709 C607,75.612908 606.6942,73.996703 606.0827,71.28843 L603.7894,61.13245 C602.8721,57.07004 601.8674,52.59271 600.7754,47.70035 C599.6833,42.80798 598.6787,37.98121 597.7613,33.21988 C596.844,28.45856 596.0796,23.9594 595.468,19.72226 C594.8565,15.48512 594.5507,12.01246 594.5507,9.30419 C594.5507,8.69264 594.6163,7.9719 594.7473,7.14195 C594.8783,6.31199 594.9439,5.41653 594.9439,4.45553 C594.9439,4.19344 594.6163,3.88767 593.961,3.53821 C593.3058,3.18876 592.5195,2.86115 591.6022,2.55538 C590.6849,2.2496 589.7676,1.98752 588.8503,1.76911 C587.933,1.5507 587.2122,1.44149 586.688,1.44149 C586.0765,1.44149 585.465,1.7691 584.8534,2.42433 C584.2419,3.07956 583.2154,4.6084 581.7739,7.0109 C580.3324,9.4134 578.2138,12.95158 575.4182,17.62554 C572.6225,22.2995 568.7349,28.65511 563.7552,36.69257 Z" id="path-1"></path>
    </defs>
    <g id="Page-1" stroke="none" stroke-width="1" fill="none" fill-rule="evenodd">
        <g id="Group">
            <mask id="mask-2" fill="white">
                <use xlink:href="#path-1"></use>
            </mask>
            <g id="Clip-2"></g>
            <polygon id="Fill-1" fill="#FFFFFF" mask="url(#mask-2)" points="-5 87.82038 612 87.82038 612 -5 -5 -5"></polygon>
        </g>
    </g>
</svg>